<svg width="135" height="150" viewBox="0 0 135 150" fill="none" xmlns="http://www.w3.org/2000/svg">
<path d="M70 102.5H65V107.5H70V102.5Z" fill="black"/>
<path d="M125 10H10C7.34783 10 4.8043 11.0536 2.92893 12.9289C1.05357 14.8043 0 17.3478 0 20V107.5C0 110.152 1.05357 112.696 2.92893 114.571C4.8043 116.446 7.34783 117.5 10 117.5H49.03L43.1975 135H30C28.0109 135 26.1032 135.79 24.6967 137.197C23.2902 138.603 22.5 140.511 22.5 142.5C22.5083 143.354 22.6639 144.199 22.96 145H10V150H105C106.989 150 108.897 149.21 110.303 147.803C111.71 146.397 112.5 144.489 112.5 142.5C112.5 140.511 111.71 138.603 110.303 137.197C108.897 135.79 106.989 135 105 135H91.8025L85.97 117.5H125C127.652 117.5 130.196 116.446 132.071 114.571C133.946 112.696 135 110.152 135 107.5V20C135 17.3478 133.946 14.8043 132.071 12.9289C130.196 11.0536 127.652 10 125 10ZM10 15H125C126.326 15 127.598 15.5268 128.536 16.4645C129.473 17.4021 130 18.6739 130 20V30H5V20C5 18.6739 5.52678 17.4021 6.46447 16.4645C7.40215 15.5268 8.67392 15 10 15ZM61.9125 91.815C61.7461 90.9888 61.7657 90.136 61.9698 89.3183C62.1739 88.5006 62.5574 87.7386 63.0925 87.0875C63.6434 86.4612 64.3214 85.9595 65.0814 85.6159C65.8414 85.2722 66.6659 85.0945 67.5 85.0945C68.3341 85.0945 69.1586 85.2722 69.9186 85.6159C70.6786 85.9595 71.3566 86.4612 71.9075 87.0875C72.4426 87.7386 72.8261 88.5006 73.0302 89.3183C73.2343 90.136 73.2538 90.9888 73.0875 91.815L72.95 92.5H62.05L61.9125 91.815ZM67.5 78.965L63.1475 74.6125L67.5 67.3575L71.8525 74.6075L67.5 78.965ZM75.775 83.915C74.8318 82.7798 73.664 81.8521 72.345 81.19L76.7675 76.7675C77.1618 76.3731 77.4129 75.8581 77.4809 75.3046C77.5488 74.751 77.4297 74.1906 77.1425 73.7125L69.6425 61.2125C69.4036 60.865 69.0837 60.5808 68.7104 60.3844C68.3372 60.1881 67.9217 60.0855 67.5 60.0855C67.0782 60.0855 66.6628 60.1881 66.2896 60.3844C65.9163 60.5808 65.5964 60.865 65.3575 61.2125L57.8575 73.7125C57.5703 74.1906 57.4512 74.751 57.5191 75.3046C57.5871 75.8581 57.8382 76.3731 58.2325 76.7675L62.655 81.19C60.6124 82.2067 58.9552 83.8591 57.9326 85.8988C56.9101 87.9385 56.5775 90.255 56.985 92.5H25V35H110V92.5H78.015C78.2817 90.9921 78.2196 89.4444 77.833 87.9628C77.4464 86.4811 76.7444 85.1004 75.775 83.915ZM5 92.5V35H20V92.5H5ZM115 75H130V92.5H115V75ZM115 70V55H130V70H115ZM115 50V35H130V50H115ZM107.5 142.5C107.5 143.163 107.237 143.799 106.768 144.268C106.299 144.737 105.663 145 105 145H30C29.337 145 28.7011 144.737 28.2322 144.268C27.7634 143.799 27.5 143.163 27.5 142.5C27.5 141.837 27.7634 141.201 28.2322 140.732C28.7011 140.263 29.337 140 30 140H105C105.663 140 106.299 140.263 106.768 140.732C107.237 141.201 107.5 141.837 107.5 142.5ZM86.53 135H48.47L54.3025 117.5H80.6975L86.53 135ZM125 112.5H10C8.67392 112.5 7.40215 111.973 6.46447 111.036C5.52678 110.098 5 108.826 5 107.5V97.5H130V107.5C130 108.826 129.473 110.098 128.536 111.036C127.598 111.973 126.326 112.5 125 112.5Z" fill="black"/>
<path d="M15 20H10V25H15V20Z" fill="black"/>
<path d="M25 20H20V25H25V20Z" fill="black"/>
<path d="M35 20H30V25H35V20Z" fill="black"/>
<path d="M15 40H10V45H15V40Z" fill="black"/>
<path d="M15 50H10V85H15V50Z" fill="black"/>
<path d="M125 40H120V45H125V40Z" fill="black"/>
<path d="M125 60H120V65H125V60Z" fill="black"/>
<path d="M125 80H120V87.5H125V80Z" fill="black"/>
<path d="M92.3648 72.5H89.9998C89.3368 72.5 88.7009 72.7634 88.232 73.2322C87.7632 73.7011 87.4998 74.337 87.4998 75V85C87.4998 85.6631 87.7632 86.2989 88.232 86.7678C88.7009 87.2366 89.3368 87.5 89.9998 87.5H99.9998C100.663 87.5 101.299 87.2366 101.768 86.7678C102.236 86.2989 102.5 85.6631 102.5 85V75C102.5 74.337 102.236 73.7011 101.768 73.2322C101.299 72.7634 100.663 72.5 99.9998 72.5H97.3898C97.0118 67.9863 95.616 63.617 93.3073 59.72C90.9986 55.8231 87.8369 52.4999 84.0598 50H90.4598C91.0495 51.668 92.21 53.0739 93.736 53.9691C95.262 54.8643 97.0554 55.1912 98.7991 54.892C100.543 54.5928 102.125 53.6868 103.265 52.3342C104.405 50.9815 105.031 49.2692 105.031 47.5C105.031 45.7308 104.405 44.0185 103.265 42.6659C102.125 41.3132 100.543 40.4072 98.7991 40.108C97.0554 39.8088 95.262 40.1357 93.736 41.0309C92.21 41.9261 91.0495 43.332 90.4598 45H74.9998V42.5C74.9998 41.837 74.7364 41.2011 74.2676 40.7322C73.7987 40.2634 73.1629 40 72.4998 40H62.4998C61.8368 40 61.2009 40.2634 60.732 40.7322C60.2632 41.2011 59.9998 41.837 59.9998 42.5V45H44.5398C43.9501 43.332 42.7896 41.9261 41.2636 41.0309C39.7376 40.1357 37.9442 39.8088 36.2005 40.108C34.4567 40.4072 32.8749 41.3132 31.7346 42.6659C30.5942 44.0185 29.9688 45.7308 29.9688 47.5C29.9688 49.2692 30.5942 50.9815 31.7346 52.3342C32.8749 53.6868 34.4567 54.5928 36.2005 54.892C37.9442 55.1912 39.7376 54.8643 41.2636 53.9691C42.7896 53.0739 43.9501 51.668 44.5398 50H50.9398C47.1627 52.4999 44.0011 55.8231 41.6923 59.72C39.3836 63.617 37.9878 67.9863 37.6098 72.5H34.9998C34.3368 72.5 33.7009 72.7634 33.232 73.2322C32.7632 73.7011 32.4998 74.337 32.4998 75V85C32.4998 85.6631 32.7632 86.2989 33.232 86.7678C33.7009 87.2366 34.3368 87.5 34.9998 87.5H44.9998C45.6629 87.5 46.2987 87.2366 46.7676 86.7678C47.2364 86.2989 47.4998 85.6631 47.4998 85V75C47.4998 74.337 47.2364 73.7011 46.7676 73.2322C46.2987 72.7634 45.6629 72.5 44.9998 72.5H42.6348C43.1215 67.6339 45.0266 63.0179 48.1137 59.225C51.2008 55.4321 55.3339 52.6295 59.9998 51.165V52.5C59.9998 53.1631 60.2632 53.7989 60.732 54.2678C61.2009 54.7366 61.8368 55 62.4998 55H72.4998C73.1629 55 73.7987 54.7366 74.2676 54.2678C74.7364 53.7989 74.9998 53.1631 74.9998 52.5V51.165C79.6658 52.6295 83.7989 55.4321 86.8859 59.225C89.973 63.0179 91.8782 67.6339 92.3648 72.5ZM97.4998 82.5H92.4998V77.5H97.4998V82.5ZM42.4998 82.5H37.4998V77.5H42.4998V82.5ZM97.4998 45C97.9943 45 98.4776 45.1466 98.8887 45.4213C99.2999 45.696 99.6203 46.0865 99.8095 46.5433C99.9987 47.0001 100.048 47.5028 99.9518 47.9877C99.8553 48.4727 99.6172 48.9181 99.2676 49.2678C98.918 49.6174 98.4725 49.8555 97.9875 49.952C97.5026 50.0484 96.9999 49.9989 96.5431 49.8097C96.0863 49.6205 95.6958 49.3001 95.4211 48.8889C95.1464 48.4778 94.9998 47.9945 94.9998 47.5C94.9998 46.837 95.2632 46.2011 95.732 45.7322C96.2009 45.2634 96.8368 45 97.4998 45ZM37.4998 50C37.0054 50 36.522 49.8534 36.1109 49.5787C35.6998 49.304 35.3793 48.9135 35.1901 48.4567C35.0009 47.9999 34.9514 47.4972 35.0479 47.0123C35.1443 46.5273 35.3824 46.0819 35.732 45.7322C36.0817 45.3826 36.5271 45.1445 37.0121 45.048C37.497 44.9516 37.9997 45.0011 38.4565 45.1903C38.9133 45.3795 39.3038 45.7 39.5785 46.1111C39.8532 46.5222 39.9998 47.0056 39.9998 47.5C39.9998 48.1631 39.7364 48.7989 39.2676 49.2678C38.7987 49.7366 38.1629 50 37.4998 50ZM69.9998 50H64.9998V45H69.9998V50Z" fill="black"/>
<path d="M5 145H0V150H5V145Z" fill="black"/>
<path d="M102.5 0H32.5V5H102.5V0Z" fill="black"/>
<path d="M112.5 0H107.5V5H112.5V0Z" fill="black"/>
</svg>
