<svg width="57" height="51" viewBox="0 0 57 51" fill="none" xmlns="http://www.w3.org/2000/svg">
<path d="M30.6945 32.5461L56.0351 7.20506C56.6217 6.61895 56.9448 5.83654 56.9448 5.00229C56.9448 4.16803 56.6217 3.38563 56.0351 2.79952L54.1694 0.933329C52.9536 -0.281017 50.9777 -0.281017 49.7638 0.933329L28.4843 22.2129L7.18117 0.909718C6.5946 0.32361 5.81265 0 4.97886 0C4.14414 0 3.3622 0.32361 2.77517 0.909718L0.909897 2.77591C0.323326 3.36248 0.000183105 4.14442 0.000183105 4.97868C0.000183105 5.81293 0.323326 6.59534 0.909897 7.18145L26.2737 32.5461C26.8621 33.1336 27.6477 33.4563 28.4829 33.4545C29.3213 33.4563 30.1065 33.1336 30.6945 32.5461Z" fill="#EEEEEE"/>
<path d="M30.7497 49.2732L56.0903 23.9321C56.6769 23.3459 57 22.5635 57 21.7293C57 20.895 56.6769 20.1126 56.0903 19.5265L54.2246 17.6603C53.0088 16.446 51.0329 16.446 49.819 17.6603L28.5395 38.9399L7.23634 17.6367C6.64977 17.0506 5.86783 16.727 5.03404 16.727C4.19932 16.727 3.41738 17.0506 2.83034 17.6367L0.965073 19.5029C0.378502 20.0895 0.0553589 20.8714 0.0553589 21.7057C0.0553589 22.5399 0.378502 23.3223 0.965073 23.9084L26.3288 49.2732C26.9173 49.8607 27.7029 50.1834 28.5381 50.1815C29.3765 50.1834 30.1617 49.8607 30.7497 49.2732Z" fill="#EEEEEE"/>
</svg>
