<svg width="150" height="150" viewBox="0 0 150 150" fill="none" xmlns="http://www.w3.org/2000/svg">
<path d="M126.289 95.0739V41.3312C126.289 39.6622 124.923 38.509 123.254 38.509H111.51C109.841 38.509 108.385 39.6622 108.385 41.3312V89.824C106.442 89.8847 104.5 90.1275 102.619 90.5827V57.1718C102.619 55.5028 101.193 54.2889 99.5235 54.2889H87.7797C86.1106 54.2889 84.7147 55.4724 84.7147 57.1718V102.478C81.1035 107.546 79.1614 113.646 79.1918 119.897C79.1918 136.526 92.6653 150 109.265 150C125.894 150 139.368 136.526 139.368 119.927C139.368 109.974 134.482 100.688 126.289 95.0739ZM114.454 44.5782H120.219V91.8572C118.368 91.1289 116.426 90.5827 114.454 90.2792V44.5782ZM90.7839 60.3581H96.5496V92.6765C94.5165 93.6173 92.5743 94.7704 90.7839 96.136V60.3581ZM129.961 132.126C125.621 139.44 117.761 143.9 109.295 143.9C96.0338 143.9 85.2913 133.128 85.2913 119.897C85.2913 110.186 91.1481 101.416 100.13 97.714C100.495 97.6533 100.828 97.5015 101.132 97.3195C103.742 96.3484 106.533 95.8629 109.325 95.8629C109.963 95.8629 110.569 95.8932 111.207 95.9539H111.237C114.879 96.227 118.429 97.3498 121.555 99.2313C132.964 105.998 136.728 120.716 129.961 132.126Z" fill="black"/>
<path d="M109.325 117.439C107.201 117.439 105.502 115.739 105.502 113.615C105.502 111.491 107.171 109.792 109.295 109.761C111.419 109.761 113.119 111.491 113.119 113.585C113.119 115.254 114.484 116.619 116.153 116.619C117.853 116.619 119.218 115.284 119.248 113.585C119.248 109.519 116.76 105.847 112.967 104.36V101.841C112.967 100.172 111.601 98.8064 109.932 98.8064C108.263 98.8064 106.898 100.172 106.898 101.841V104.026C101.617 105.391 98.4311 110.793 99.7967 116.073C100.889 120.443 104.804 123.478 109.295 123.478C111.389 123.478 113.088 125.207 113.088 127.301C113.088 129.395 111.359 131.094 109.265 131.094C107.171 131.094 105.471 129.365 105.471 127.271C105.471 125.602 104.106 124.236 102.437 124.236C100.768 124.236 99.4326 125.572 99.4629 127.241V127.271C99.4933 131.762 102.528 135.707 106.867 136.83V138.195C106.867 139.864 108.233 141.23 109.902 141.23C111.571 141.23 112.937 139.864 112.937 138.195V136.526C118.035 134.524 120.523 128.788 118.551 123.72C117.064 119.927 113.392 117.439 109.325 117.439Z" fill="black"/>
<path d="M51.9408 78.5657H40.1059C38.4369 78.5657 37.0713 79.9312 37.0713 81.6003V129.243C37.0713 130.912 38.4369 132.278 40.1059 132.278H51.9408C53.6098 132.278 54.9754 130.912 54.9754 129.243V81.6003C54.9754 79.9312 53.6098 78.5657 51.9408 78.5657ZM48.9062 126.512H43.1405V84.6349H48.9062V126.512Z" fill="black"/>
<path d="M75.9144 71.5861H64.0795C62.4105 71.5861 61.0449 72.9516 61.0449 74.6207V129.547C61.0449 131.216 62.4105 132.581 64.0795 132.581H75.9144C77.5835 132.581 78.949 131.216 78.949 129.547V74.6207C78.949 72.9516 77.5835 71.5861 75.9144 71.5861ZM72.8798 126.512H67.1141V77.6552H72.8798V126.512Z" fill="black"/>
<path d="M27.9677 104.663H16.1327C14.4637 104.663 13.0981 106.029 13.0981 107.698V129.243C13.0981 130.912 14.4637 132.278 16.1327 132.278H27.9677C29.6367 132.278 31.0023 130.912 31.0023 129.243V107.698C31.0023 106.029 29.6367 104.663 27.9677 104.663ZM24.9331 126.512H19.1673V110.732H24.9331V126.512Z" fill="black"/>
<path d="M125.833 0L105.076 0.0303459C103.407 0 102.042 1.36557 102.012 3.03459C101.981 4.70362 103.347 6.06919 105.016 6.09953C105.046 6.09953 105.046 6.09953 105.076 6.09953L118.52 6.06919L85.5944 38.8732L74.0933 27.4631C73.5167 26.9169 72.7277 26.6437 71.9387 26.6741C71.1497 26.6437 70.3607 26.9169 69.7842 27.4631L11.5199 85.7273C10.3365 86.9108 10.3365 88.8226 11.5199 89.9757C12.0965 90.5523 12.8552 90.8558 13.6745 90.8558C14.4938 90.8558 15.2525 90.5523 15.8291 89.9757L71.9691 33.8357L83.4702 45.4279C84.0164 46.0348 84.8054 46.3686 85.6247 46.3989C86.4441 46.3686 87.2027 46.0044 87.7793 45.4279L122.799 10.3783L122.768 23.8823C122.768 25.5816 124.103 26.9472 125.803 27.0079C127.502 26.9775 128.837 25.5816 128.837 23.8823L128.868 3.06494C128.868 1.39591 127.502 0 125.833 0Z" fill="black"/>
</svg>
