<svg width="150" height="113" viewBox="0 0 150 113" fill="none" xmlns="http://www.w3.org/2000/svg">
<path d="M11.3882 25.1388H34.5614C35.7749 25.1388 36.7587 24.1539 36.7587 22.9383C36.7587 21.7227 35.7749 20.7378 34.5614 20.7378H11.3882C10.1747 20.7378 9.19092 21.7227 9.19092 22.9383C9.19092 24.1539 10.1744 25.1388 11.3882 25.1388Z" fill="black"/>
<path d="M33.7669 35.7327H24.6128C23.3993 35.7327 22.4155 36.7176 22.4155 37.9332C22.4155 39.1487 23.3993 40.1337 24.6128 40.1337H33.7669C34.9804 40.1337 35.9642 39.1487 35.9642 37.9332C35.9642 36.7176 34.9804 35.7327 33.7669 35.7327Z" fill="black"/>
<path d="M2.19727 50.9923H24.6129C25.8264 50.9923 26.8102 50.0074 26.8102 48.7918C26.8102 47.5763 25.8264 46.5913 24.6129 46.5913H2.19727C0.983789 46.5913 0 47.5763 0 48.7918C0 50.0074 0.983789 50.9923 2.19727 50.9923Z" fill="black"/>
<path d="M36.7587 90.0035C36.7587 88.7879 35.7749 87.803 34.5614 87.803H11.3882C10.1747 87.803 9.19092 88.7879 9.19092 90.0035C9.19092 91.219 10.1747 92.204 11.3882 92.204H34.5614C35.7749 92.204 36.7587 91.219 36.7587 90.0035Z" fill="black"/>
<path d="M33.7669 72.8083H24.6128C23.3993 72.8083 22.4155 73.7933 22.4155 75.0089C22.4155 76.2244 23.3993 77.2094 24.6128 77.2094H33.7669C34.9804 77.2094 35.9642 76.2244 35.9642 75.0089C35.9642 73.7933 34.9804 72.8083 33.7669 72.8083Z" fill="black"/>
<path d="M26.8102 64.1502C26.8102 62.9347 25.8264 61.9497 24.6129 61.9497H2.19727C0.983789 61.9497 0 62.9347 0 64.1502C0 65.3658 0.983789 66.3507 2.19727 66.3507H24.6129C25.8264 66.3507 26.8102 65.3658 26.8102 64.1502Z" fill="black"/>
<path d="M93.6123 30.0152C94.8261 30.0152 95.8096 29.0303 95.8096 27.8147V24.4559C95.8096 23.2403 94.8261 22.2554 93.6123 22.2554C92.3985 22.2554 91.415 23.2403 91.415 24.4559V27.8147C91.415 29.0303 92.3985 30.0152 93.6123 30.0152Z" fill="black"/>
<path d="M117.771 32.2766C116.912 31.4176 115.521 31.4176 114.663 32.2766L112.292 34.6517C111.433 35.5114 111.433 36.9044 112.292 37.7638C113.15 38.6232 114.541 38.6229 115.399 37.7638L117.771 35.3887C118.628 34.5294 118.628 33.1363 117.771 32.2766Z" fill="black"/>
<path d="M122.226 54.2705C121.012 54.2705 120.029 55.2555 120.029 56.471C120.029 57.6866 121.012 58.6715 122.226 58.6715H125.58C126.793 58.6715 127.777 57.6866 127.777 56.471C127.777 55.2555 126.793 54.2705 125.58 54.2705H122.226Z" fill="black"/>
<path d="M115.399 75.1779C114.541 74.3188 113.15 74.3188 112.292 75.1779C111.433 76.0375 111.433 77.4306 112.292 78.29L114.663 80.665C115.522 81.5244 116.913 81.5241 117.771 80.665C118.629 79.8054 118.629 78.4123 117.771 77.5529L115.399 75.1779Z" fill="black"/>
<path d="M91.415 85.1274V88.4859C91.415 89.7015 92.3985 90.6864 93.6123 90.6864C94.8261 90.6864 95.8096 89.7015 95.8096 88.4859V85.1274C95.8096 83.9118 94.8261 82.9269 93.6123 82.9269C92.3985 82.9269 91.415 83.9121 91.415 85.1274Z" fill="black"/>
<path d="M71.8247 75.1779L69.4531 77.5529C68.595 78.4126 68.595 79.8057 69.4531 80.665C70.3115 81.5244 71.7026 81.5241 72.5604 80.665L74.932 78.29C75.7901 77.4303 75.7901 76.0372 74.932 75.1779C74.0741 74.3188 72.6828 74.3188 71.8247 75.1779Z" fill="black"/>
<path d="M61.644 54.2705C60.4306 54.2705 59.4468 55.2555 59.4468 56.471C59.4468 57.6866 60.4306 58.6715 61.644 58.6715H64.9979C66.2114 58.6715 67.1952 57.6866 67.1952 56.471C67.1952 55.2555 66.2114 54.2705 64.9979 54.2705H61.644Z" fill="black"/>
<path d="M74.9324 34.6517L72.5609 32.2766C71.7028 31.4176 70.3115 31.4176 69.4536 32.2766C68.5955 33.1363 68.5955 34.5294 69.4536 35.3887L71.8252 37.7638C72.6836 38.6232 74.0746 38.6229 74.9324 37.7638C75.7906 36.9044 75.7906 35.5114 74.9324 34.6517Z" fill="black"/>
<path d="M105.428 56.471C105.428 55.2554 104.444 54.2705 103.23 54.2705H95.8096V37.9328C95.8096 36.7172 94.8261 35.7323 93.6123 35.7323C92.3985 35.7323 91.415 36.7172 91.415 37.9328V56.471C91.415 57.6866 92.3985 58.6715 93.6123 58.6715H103.23C104.444 58.6715 105.428 57.6866 105.428 56.471Z" fill="black"/>
<path d="M135.276 56.1079C136.487 56.0342 137.41 54.9912 137.336 53.7783C135.938 30.6868 116.732 12.5984 93.6119 12.5984C69.4561 12.5984 49.8037 32.2797 49.8037 56.4714C49.8037 80.6628 69.4561 100.344 93.6119 100.344C115.253 100.344 133.719 84.4647 136.932 63.0362C137.112 61.8344 136.285 60.714 135.085 60.5335C133.888 60.3537 132.766 61.1807 132.586 62.3831C129.7 81.6343 113.102 95.9434 93.6119 95.9434C71.8792 95.9434 54.1982 78.2364 54.1982 56.4717C54.1982 34.707 71.8792 16.9997 93.6119 16.9997C114.413 16.9997 131.692 33.2719 132.949 54.0453C133.023 55.2576 134.063 56.1783 135.276 56.1079Z" fill="black"/>
<path d="M93.6119 0C85.8831 0 78.3107 1.60578 71.341 4.60873H32.5728C31.3593 4.60873 30.3755 5.59367 30.3755 6.80923C30.3755 8.02479 31.3593 9.00973 32.5728 9.00973H63.0746C58.9505 11.6679 55.1539 14.8742 51.8064 18.5757C50.992 19.4762 51.0605 20.8678 51.96 21.6837C52.8597 22.4997 54.2486 22.4307 55.0637 21.53C64.908 10.6443 78.9585 4.401 93.6119 4.401C122.281 4.401 145.606 27.7595 145.606 56.471C145.606 85.1823 122.282 108.541 93.6119 108.541C64.9426 108.541 41.6185 85.1826 41.6185 56.471C41.6185 46.4168 44.4863 36.6583 49.9115 28.25C50.5701 27.2293 50.2777 25.8673 49.2585 25.2078C48.2393 24.5485 46.8793 24.8407 46.2204 25.8617C40.3347 34.983 37.2239 45.5674 37.2239 56.471C37.2239 76.3536 47.5382 93.8672 63.0887 103.932H32.573C31.3596 103.932 30.3758 104.917 30.3758 106.133C30.3758 107.348 31.3596 108.333 32.573 108.333H71.3108C78.1546 111.296 85.6947 112.942 93.6122 112.942C124.704 112.942 150 87.6093 150 56.471C150 25.3328 124.704 0 93.6119 0Z" fill="black"/>
</svg>
