<svg width="71" height="50" viewBox="0 0 71 50" fill="none" xmlns="http://www.w3.org/2000/svg">
<path d="M14.7645 -4.95911e-05C16.1237 -4.95911e-05 17.1549 0.188541 17.858 0.565723C18.5611 0.942903 18.9126 1.43795 18.9126 2.05087C19.8032 1.90943 20.5765 1.81513 21.2327 1.76799C21.9358 1.72084 22.7092 1.69726 23.5528 1.69726C26.9276 1.69726 29.7633 2.52234 32.06 4.17251C34.4035 5.82268 36.1378 7.99147 37.2627 10.6789C38.4345 13.3663 39.0204 16.2659 39.0204 19.3776C39.0204 20.1791 38.997 20.7685 38.9501 21.1456C38.5282 26.8033 37.1221 31.801 34.7317 36.1386C32.3412 40.429 29.1774 43.7529 25.2402 46.1103C21.3499 48.4676 16.9674 49.6463 12.0928 49.6463C10.7336 49.6463 9.0696 49.4814 7.10101 49.1513C6.35106 49.0099 5.46051 48.5148 4.42934 47.6661C3.44504 46.7703 2.60136 45.7567 1.89829 44.6251C1.19522 43.4936 0.843684 42.4799 0.843684 41.5841C0.843684 41.0655 0.913991 40.5705 1.0546 40.099L8.43684 11.4568C5.76517 12.2583 3.51535 13.2956 1.68737 14.5686C1.12491 14.0028 0.70307 13.2956 0.421842 12.4469C0.140614 11.5983 0 10.726 0 9.83022C0 8.79295 0.421842 7.87357 1.26553 7.07209C3.46848 5.65766 6.51512 4.4554 10.4054 3.4653C11.296 1.15507 12.749 -4.95911e-05 14.7645 -4.95911e-05ZM9.84298 41.7963C10.9679 42.0792 12.1865 42.2206 13.4989 42.2206C16.78 42.2206 19.5922 41.3248 21.9358 39.5332C24.2793 37.6944 26.1073 35.3842 27.4197 32.6025C28.779 29.8208 29.6696 26.9448 30.0914 23.9745C30.2789 22.7958 30.3726 21.4757 30.3726 20.0141C30.3726 16.7137 29.6461 14.1207 28.1931 12.2347C26.7401 10.3017 24.4903 9.33517 21.4436 9.33517C20.1312 9.33517 18.936 9.42944 17.858 9.61806C17.0143 13.2956 15.2332 20.4856 12.5146 31.1881C11.0616 36.9401 10.1711 40.4761 9.84298 41.7963ZM47.7143 11.8811C46.7769 11.5511 46.0504 11.056 45.5348 10.396C45.0661 9.68878 44.8317 8.86367 44.8317 7.92075C44.8317 6.55346 45.7457 5.46907 47.5737 4.66756C54.2763 3.30028 61.0258 2.33376 67.8221 1.76799C69.6501 2.56949 70.5643 3.65389 70.5643 5.02117C70.5643 5.86983 70.1422 6.69491 69.2985 7.49642C68.4548 8.2979 67.494 8.86367 66.4159 9.19373L62.5491 9.68878C61.7523 13.2248 59.9243 20.8392 57.0651 32.5318L55.0965 40.4526L60.5102 39.8868C62.3381 40.6883 63.2521 41.7727 63.2521 43.14C63.2521 43.9886 62.8303 44.8137 61.9866 45.6152C61.1429 46.4167 60.1821 46.9825 59.104 47.3125L56.2917 47.6661C49.4016 48.4205 44.1052 49.1985 40.4023 50C39.4649 49.6699 38.7619 49.1749 38.2931 48.5148C37.7776 47.8076 37.5198 46.9825 37.5198 46.0396C37.5198 44.6723 38.4338 43.5879 40.2617 42.7864C42.6053 42.3149 44.3864 41.9849 45.6051 41.7963L53.3388 10.891C51.4171 11.1739 49.5423 11.504 47.7143 11.8811Z" fill="#FFAB1F"/>
</svg>
