<svg width="71" height="50" viewBox="0 0 71 50" fill="none" xmlns="http://www.w3.org/2000/svg">
<path d="M14.7645 0C16.1237 0 17.1549 0.18859 17.858 0.565772C18.5611 0.942953 18.9126 1.438 18.9126 2.05092C19.8032 1.90948 20.5765 1.81518 21.2327 1.76804C21.9358 1.72089 22.7092 1.69731 23.5528 1.69731C26.9276 1.69731 29.7633 2.52239 32.06 4.17256C34.4035 5.82273 36.1378 7.99152 37.2627 10.6789C38.4345 13.3663 39.0204 16.2659 39.0204 19.3777C39.0204 20.1791 38.997 20.7685 38.9501 21.1457C38.5282 26.8034 37.1221 31.8011 34.7317 36.1386C32.3412 40.4291 29.1774 43.753 25.2402 46.1103C21.3499 48.4677 16.9674 49.6464 12.0928 49.6464C10.7336 49.6464 9.0696 49.4814 7.10101 49.1513C6.35106 49.0099 5.46051 48.5149 4.42934 47.6662C3.44504 46.7704 2.60136 45.7567 1.89829 44.6252C1.19522 43.4936 0.843684 42.48 0.843684 41.5842C0.843684 41.0656 0.913991 40.5705 1.0546 40.099L8.43684 11.4569C5.76517 12.2583 3.51535 13.2956 1.68737 14.5686C1.12491 14.0028 0.70307 13.2956 0.421842 12.447C0.140614 11.5983 0 10.7261 0 9.83027C0 8.793 0.421842 7.87362 1.26553 7.07214C3.46848 5.65771 6.51512 4.45545 10.4054 3.46535C11.296 1.15512 12.749 0 14.7645 0ZM9.84298 41.7963C10.9679 42.0792 12.1865 42.2207 13.4989 42.2207C16.78 42.2207 19.5922 41.3248 21.9358 39.5332C24.2793 37.6945 26.1073 35.3842 27.4197 32.6026C28.779 29.8209 29.6696 26.9448 30.0914 23.9745C30.2789 22.7958 30.3726 21.4757 30.3726 20.0141C30.3726 16.7138 29.6461 14.1207 28.1931 12.2348C26.7401 10.3018 24.4903 9.33522 21.4436 9.33522C20.1312 9.33522 18.936 9.42949 17.858 9.61811C17.0143 13.2956 15.2332 20.4856 12.5146 31.1881C11.0616 36.9401 10.1711 40.4762 9.84298 41.7963ZM47.7143 11.8812C46.7769 11.5511 46.0504 11.0561 45.5348 10.396C45.0661 9.68883 44.8317 8.86372 44.8317 7.9208C44.8317 6.55351 45.7457 5.46912 47.5737 4.66761C54.2763 3.30033 61.0258 2.33381 67.8221 1.76804C69.6501 2.56954 70.5643 3.65394 70.5643 5.02122C70.5643 5.86988 70.1422 6.69496 69.2985 7.49647C68.4548 8.29795 67.494 8.86372 66.4159 9.19378L62.5491 9.68883C61.7523 13.2249 59.9243 20.8393 57.0651 32.5318L55.0965 40.4526L60.5102 39.8868C62.3381 40.6883 63.2521 41.7728 63.2521 43.14C63.2521 43.9887 62.8303 44.8138 61.9866 45.6153C61.1429 46.4168 60.1821 46.9825 59.104 47.3126L56.2917 47.6662C49.4016 48.4206 44.1052 49.1985 40.4023 50C39.4649 49.6699 38.7619 49.1749 38.2931 48.5149C37.7776 47.8076 37.5198 46.9825 37.5198 46.0396C37.5198 44.6724 38.4338 43.5879 40.2617 42.7864C42.6053 42.3149 44.3864 41.9849 45.6051 41.7963L53.3388 10.8911C51.4171 11.174 49.5423 11.504 47.7143 11.8812Z" fill="#222222"/>
</svg>
