<svg width="150" height="150" viewBox="0 0 150 150" fill="none" xmlns="http://www.w3.org/2000/svg">
<g clip-path="url(#clip0)">
<path d="M147.5 89.9993H132.908L119.39 85.4998L115 74.5196V66.2493C114.983 60.5303 110.668 55.7391 104.983 55.1251C104.983 54.782 105 54.439 105 54.0972V17.4993C105 16.3946 104.276 15.4217 103.218 15.1043L53.2178 0.104309C52.749 -0.0360718 52.251 -0.0360718 51.7822 0.104309L1.78223 15.1043C0.725098 15.4217 0 16.3946 0 17.4993V54.0972C0 55.2569 0.078125 56.4019 0.119629 57.5543C0.183106 59.2425 0.2771 60.9197 0.427246 62.5872C0.452881 62.8716 0.487061 63.139 0.515137 63.4197C3.5852 95.1617 22.8162 123.074 51.3831 137.249C52.0862 137.601 52.9138 137.601 53.6182 137.249C57.3572 135.372 60.968 133.245 64.4226 130.884C65.2075 131.966 66.1987 132.88 67.3401 133.575C64.8438 136.552 64.2981 140.705 65.9399 144.227C67.5818 147.747 71.1145 149.998 75 149.999H117.5C117.994 149.999 118.477 149.853 118.888 149.579L133.25 139.999H147.5C148.881 139.999 150 138.88 150 137.499V92.4993C150 91.1187 148.881 89.9993 147.5 89.9993ZM93.3923 77.7166L96.3074 84.9993H81.7822C87.0911 75.4766 89.9109 64.7674 89.9829 53.8641L100 50.8599V54.0972C100 54.6319 99.9829 55.1641 99.9731 55.7C95.5054 57.2869 92.5146 61.5081 92.5 66.2493V73.0718C92.4988 74.6636 92.8015 76.2396 93.3923 77.7166ZM57.5 94.9993C57.5024 97.553 58.4875 100.009 60.2502 101.857C59.3225 102.532 58.4131 103.232 57.4548 103.857L52.5 107.027L47.5549 103.849C36.4697 96.7437 28.0408 86.1749 23.5779 73.7872L84.928 55.3814C84.5862 65.8709 81.4905 76.0858 75.9521 84.9993H67.5C61.9775 84.9993 57.5 89.4769 57.5 94.9993ZM6.35742 69.3426C6.33789 69.2169 6.3147 69.0923 6.29517 68.9715L16.2305 65.9991C16.5247 67.4993 16.8823 68.9996 17.2827 70.4644L7.20459 73.4893C6.875 72.055 6.60278 70.6866 6.35742 69.3426ZM5.20508 59.2999L15.0928 56.3323C15.1624 57.8997 15.2771 59.4573 15.4578 61.0015L5.59204 63.9617C5.56763 63.7371 5.5481 63.515 5.52246 63.2891C5.39551 62.0001 5.27954 60.6915 5.20508 59.2999ZM85 30.1397L20 49.6392V31.762L52.5854 20.1251L85 29.3841V30.1397ZM85 35.3594V40.1397L20.3406 59.5367C20.1831 57.9839 20.0854 56.4202 20.0452 54.8467L85 35.3594ZM100 40.8599V45.639L90 48.6395V43.8592L100 40.8599ZM100 35.639L90 38.6395V33.8592L100 30.8599V35.639ZM21.04 64.5464L61.72 52.3443L85 45.3594V50.1397L22.0703 69.0191C21.6748 67.5445 21.322 66.0565 21.04 64.5464ZM5 19.3597L52.5 5.10919L100 19.3597V25.639L90 28.6395V27.4993C90 26.3836 89.2603 25.4034 88.1873 25.097L53.1873 15.097C52.6868 14.9517 52.1509 14.9676 51.6602 15.1446L16.6602 27.6446C15.6641 27.9998 15 28.9422 15 29.9993V51.1395L5 54.14V19.3597ZM52.5 132.194C30.9668 121.133 14.9854 101.635 8.36548 78.3489L18.783 75.2239C23.5901 88.7567 32.76 100.306 44.8499 108.055L51.1475 112.103C51.9714 112.632 53.0286 112.632 53.8525 112.103L60.1501 108.055L60.2148 108.012C59.3347 112.16 61.1987 116.407 64.8474 118.567C63.3301 120.367 62.4988 122.646 62.5 124.999C62.5049 125.347 62.5281 125.694 62.5696 126.039C59.3542 128.314 55.9912 130.37 52.5 132.194ZM116.75 144.999H75C72.2388 144.999 70 142.761 70 139.999C69.9951 137.404 71.9958 135.245 74.585 135.052C75.929 134.913 76.9312 133.752 76.8726 132.402C76.8201 131.059 75.7166 129.998 74.3726 129.999H72.5C69.7388 129.999 67.5 127.761 67.5 124.999C67.5 122.238 69.7388 119.999 72.5 119.999C73.8806 119.999 75 118.88 75 117.499C75 116.119 73.8806 114.999 72.5 114.999H70C67.2388 114.999 65 112.761 65 109.999C65 107.238 67.2388 104.999 70 104.999C71.3806 104.999 72.5 103.88 72.5 102.499C72.5 101.119 71.3806 99.9993 70 99.9993H67.5C64.7388 99.9993 62.5 97.7606 62.5 94.9993C62.5 92.2381 64.7388 89.9993 67.5 89.9993H100C100.83 90.0005 101.606 89.5892 102.072 88.9007C102.538 88.2134 102.632 87.3406 102.323 86.5692L98.0371 75.8599C97.6807 74.9737 97.4988 74.0276 97.5 73.0718V66.2493C97.5 62.7972 100.298 59.9993 103.75 59.9993C107.202 59.9993 110 62.7972 110 66.2493V74.9993C110 75.3179 110.061 75.6329 110.177 75.9295L115.177 88.4295C115.453 89.1107 116.013 89.638 116.71 89.8724L130 94.3023V136.161L116.75 144.999ZM145 134.999H135V94.9993H145V134.999Z" fill="black"/>
<path d="M131.55 32.0996L128.132 35.7507C129.274 36.8188 130.347 37.9578 131.345 39.1601L135.19 35.9631C134.059 34.6008 132.843 33.3105 131.55 32.0996Z" fill="black"/>
<path d="M145 63.1226C145 62.1423 144.967 61.1719 144.9 60.21L139.912 60.5481C139.969 61.3977 139.999 62.2559 140 63.1226C140 63.8306 139.98 64.5349 139.94 65.2332L144.94 65.52C144.98 64.7253 145 63.9258 145 63.1226Z" fill="black"/>
<path d="M127.462 28.7231C126.029 27.6807 124.532 26.7285 122.979 25.8728L120.567 30.2502C121.936 31.001 123.255 31.8359 124.52 32.7502L127.462 28.7231Z" fill="black"/>
<path d="M144.311 70.7849L139.39 69.8901C139.112 71.427 138.736 72.9443 138.266 74.4324L143.03 75.9326C143.565 74.2456 143.992 72.5269 144.311 70.7849Z" fill="black"/>
<path d="M118.175 23.6047C116.527 22.9504 114.84 22.4011 113.123 21.9604L111.873 26.803C113.386 27.1936 114.874 27.677 116.328 28.2532L118.175 23.6047Z" fill="black"/>
<path d="M135.312 81.2878L139.688 83.7121C140.188 82.7954 140.687 81.8555 141.115 80.8923L136.575 78.8025C136.191 79.6472 135.771 80.4761 135.312 81.2878Z" fill="black"/>
<path d="M134.112 42.9407C134.952 44.2554 135.71 45.6213 136.383 47.03L140.897 44.8853C140.136 43.2861 139.277 41.7358 138.323 40.2454L134.112 42.9407Z" fill="black"/>
<path d="M138.125 51.3721C138.612 52.8552 139.006 54.3677 139.305 55.8997L144.213 54.9475C143.875 53.208 143.428 51.4905 142.872 49.8071L138.125 51.3721Z" fill="black"/>
<path d="M112.465 47.6807C118.54 50.0867 122.521 55.9668 122.5 62.5H127.5C127.529 53.9197 122.3 46.1975 114.323 43.0371L113.43 42.6807L111.57 47.3206L112.465 47.6807Z" fill="black"/>
</g>
<defs>
<clipPath id="clip0">
<rect width="150" height="150" fill="white"/>
</clipPath>
</defs>
</svg>
